<?xml version="1.0" standalone="no"?><!DOCTYPE svg PUBLIC "-//W3C//DTD SVG 1.1//EN" "http://www.w3.org/Graphics/SVG/1.1/DTD/svg11.dtd"><svg t="1512696645361" class="icon" style="" viewBox="0 0 1024 1024" version="1.1" xmlns="http://www.w3.org/2000/svg" p-id="996" xmlns:xlink="http://www.w3.org/1999/xlink" width="200" height="200"><defs><style type="text/css"></style></defs><path d="M62.996776 484.061694l423.162696 0L486.159472 60.900022 62.996776 60.900022 62.996776 484.061694zM168.788218 166.69044l211.580836 0 0 211.580836L168.788218 378.271276 168.788218 166.69044zM539.055193 60.900022l0 423.162696 423.162696 0L962.217888 60.900022 539.055193 60.900022zM856.426447 378.271276 644.845611 378.271276 644.845611 166.69044l211.580836 0L856.426447 378.271276zM221.682915 325.376579l105.790418 0L327.473333 219.585137 221.682915 219.585137 221.682915 325.376579zM62.996776 960.120111l423.162696 0L486.159472 536.957415 62.996776 536.957415 62.996776 960.120111zM168.788218 642.747833l211.580836 0 0 211.580836L168.788218 854.328669 168.788218 642.747833zM803.531749 219.585137 697.740308 219.585137l0 105.790418 105.790418 0L803.530726 219.585137zM539.055193 960.120111l105.790418 0L644.845611 854.329692 539.055193 854.329692 539.055193 960.120111zM644.845611 642.747833l0 211.580836 105.790418 0L750.636029 642.747833 644.845611 642.747833zM856.426447 854.329692 750.636029 854.329692 750.636029 960.120111l211.580836 0L962.216865 748.538251 856.426447 748.538251 856.426447 854.329692zM856.426447 642.747833l105.790418 0L962.216865 536.957415 856.426447 536.957415 856.426447 642.747833zM539.055193 536.957415l0 105.790418 105.790418 0L644.845611 536.957415 539.055193 536.957415zM221.682915 801.433972l105.790418 0L327.473333 695.643554 221.682915 695.643554 221.682915 801.433972z" fill="#96d4f5" p-id="997"></path></svg>