<?xml version="1.0" standalone="no"?><!DOCTYPE svg PUBLIC "-//W3C//DTD SVG 1.1//EN" "http://www.w3.org/Graphics/SVG/1.1/DTD/svg11.dtd"><svg t="1514516284370" class="icon" style="" viewBox="0 0 1024 1024" version="1.1" xmlns="http://www.w3.org/2000/svg" p-id="7469" xmlns:xlink="http://www.w3.org/1999/xlink" width="200" height="200"><defs><style type="text/css"></style></defs><path d="M1019.166413 323.727009c-0.794086-1.790786-1.689479-3.582595-2.584871-5.174859L875.383706 81.633229 764.936221 323.825246 1019.166413 323.727009 1019.166413 323.727009 1019.166413 323.727009zM320.7497 323.727009l377.12108 0L509.208932 56.857962 320.7497 323.727009 320.7497 323.727009zM470.504422 45.016263 204.331223 45.016263c-10.348696 0-21.593807 3.781116-31.146371 9.850345l113.932866 249.656013L470.504422 45.016263 470.504422 45.016263 470.504422 45.016263zM846.627778 51.782364c-8.15882-4.278443-17.214057-6.766101-25.770943-6.766101L548.015773 45.016263l183.386704 259.506359L846.627778 51.782364 846.627778 51.782364 846.627778 51.782364zM310.002938 362.235045l198.709691 615.033631c0.496304 0.099261 0.895393 0.099261 1.393743 0.198521l198.409862-615.232153L310.002938 362.235045 310.002938 362.235045 310.002938 362.235045zM146.020166 88.002286 8.705777 318.452889c-1.094938 1.790786-2.089591 3.483334-3.085268 5.174859l247.963465 0L146.020166 88.002286 146.020166 88.002286 146.020166 88.002286zM1.044284 362.235045l1.093914 1.890047 1.990331 0c2.288113 2.786463 5.472642 6.66684 9.253758 11.44261l436.124915 543.590486-179.902346-556.924165L1.044284 362.234021 1.044284 362.235045 1.044284 362.235045zM1019.963569 362.235045 749.015623 362.235045 564.535005 934.086178l448.065875-558.517453C1015.784386 371.588063 1018.172783 367.010815 1019.963569 362.235045L1019.963569 362.235045 1019.963569 362.235045z" p-id="7470" fill="#1afa29"></path></svg>