<?xml version="1.0" standalone="no"?><!DOCTYPE svg PUBLIC "-//W3C//DTD SVG 1.1//EN" "http://www.w3.org/Graphics/SVG/1.1/DTD/svg11.dtd"><svg t="1516860979905" class="icon" style="" viewBox="0 0 1024 1024" version="1.1" xmlns="http://www.w3.org/2000/svg" p-id="1502" xmlns:xlink="http://www.w3.org/1999/xlink" width="200" height="200"><defs><style type="text/css"></style></defs><path d="M838.872178 237.556622l-98.531556 60.188444 7.168 12.162844c-47.945956-13.676089-143.177956-38.331733-193.422222-38.331733-47.559111 0-72.931556 12.276622-105.927111 28.205511-6.485333 3.083378-60.074667 28.785778-61.098667 29.013333l-115.143111-0.329956-106.154667 145.294222 74.638222 68.608c-6.303289 16.440889-2.605511 32.494933 7.395556 44.032 9.591467 11.1616 23.870578 17.351111 40.846222 14.097067-11.389156 21.617778-9.9328 39.025778 2.730667 53.589333 12.242489 14.097067 29.445689 19.296711 52.565333 10.592711-4.096 15.553422-2.628267 29.479822 8.192 42.097778 9.773511 11.377778 24.314311 17.419378 41.642667 14.336l4.096-0.796444c-7.361422 19.262578-4.016356 34.679467 6.371556 46.648889 15.792356 18.397867 43.064889 20.400356 60.871111 4.664889l16.156444-13.983289 15.587556 29.229511c7.657244 14.518044 26.146133 21.754311 42.666667 13.084444 16.304356-8.772267 21.333333-27.886933 13.539556-42.780444-11.264-21.060267-29.809778-55.1936-29.809778-55.1936 0.671289-15.860622-4.926578-22.687289-13.312-31.402667l11.832889-7.964444c0 0 33.450667 64.182044 45.511111 86.9376 7.668622 14.848 26.385067 21.617778 42.666667 13.073067 16.873244-9.056711 21.105778-28.398933 13.539556-42.894222l-49.038222-91.591111 13.880889-8.772267 54.613333 102.855111c8.237511 15.610311 27.363556 21.230933 42.666667 13.198222 16.7936-9.136356 21.276444-28.125867 13.539556-42.894222l-56.775111-106.848711 14.449778-8.647111c0 0 37.546667 72.135111 51.086222 97.848889 7.657244 14.518044 26.146133 21.754311 42.666667 13.084444 15.815111-8.419556 21.731556-27.306667 13.539556-42.9056l-37.432889-70.530844c27.704889-16.406756 45.135644-41.472 65.194667-72.146489l50.062222-31.516444 15.485156 24.723911 106.643911-55.523556L838.872178 237.556622zM338.818844 643.1744c-9.477689 8.430933-23.984356 6.974578-31.630222-2.1504-8.055467-8.999822-6.417067-28.797156 9.102222-38.582044 1.069511-0.705422 86.892089-75.025067 87.722667-75.764622 9.090844-8.078222 23.369956-7.418311 31.744 2.264178 8.339911 9.489067 7.554844 23.711289-1.934222 31.982933L338.818844 643.1744zM399.576178 695.967289c-9.363911 8.2944-23.7568 7.122489-31.744-2.173156-7.736889-8.988444-7.623111-22.061511 0.227556-30.492444 1.285689-1.297067 69.518222-60.336356 70.883556-61.553778 9.284267-8.271644 23.540622-7.168 31.744 2.161778 8.556089 9.989689 7.281778 24.257422-1.934222 32.073956L399.576178 695.967289zM495.149511 718.722844l-43.349333 37.432889c-9.272889 8.237511-23.643022 7.224889-31.857778-2.275556-8.442311-9.614222-7.133867-24.155022 2.048-31.982933l43.349333-37.762844c8.283022-7.088356 21.526756-7.839289 31.061333 1.695289C503.955911 691.882667 506.527289 708.8128 495.149511 718.722844M778.797511 486.5024c-1.627022 1.627022-3.242667 3.094756-4.209778 4.539733-14.677333 22.880711-36.260978 51.359289-58.185956 62.7712-86.596267-118.545067-134.951822-157.331911-197.700267-213.174044l-146.204444 68.5056c-10.922667 5.449956-24.667022 0.773689-30.151111-10.695111-5.506844-11.252622-0.876089-24.928711 10.467556-30.378667l141.767111-66.446222c17.976889-6.599111 36.636444-9.682489 59.733333-9.682489 48.2304 0 162.224356 31.698489 209.874489 44.987733l68.869689 117.475556L778.797511 486.5024zM47.047111 405.139911l122.390756-178.016711 90.055111 72.192L139.912533 465.225956 47.047111 405.139911zM263.497956 573.314844c-8.510578-9.739378-7.111111-24.257422 1.934222-31.971556l77.710222-67.584c9.443556-7.862044 23.745422-7.031467 31.857778 2.389333 8.419556 9.671111 7.509333 23.779556-1.934222 32.085333l-77.824 67.356444C286.981689 583.111111 272.0768 583.2704 263.497956 573.314844z" p-id="1503" fill="#1afa29"></path></svg>