<?xml version="1.0" standalone="no"?><!DOCTYPE svg PUBLIC "-//W3C//DTD SVG 1.1//EN" "http://www.w3.org/Graphics/SVG/1.1/DTD/svg11.dtd"><svg t="1514511494312" class="icon" style="" viewBox="0 0 1024 1024" version="1.1" xmlns="http://www.w3.org/2000/svg" p-id="5230" xmlns:xlink="http://www.w3.org/1999/xlink" width="200" height="200"><defs><style type="text/css"></style></defs><path d="M236.139 422.045h238.552l39.751-225.448-52.161-45.091H142.028L72 548.643h135.847l28.292-126.598z m28.892-197.701h121.395l-22.12 125.443H242.911l22.12-125.443z m485.077 110.991L952 160.757H814.997L652.169 300.651l26.709-151.456H557.484l-70.435 399.449h121.395l31.09-176.312 129.642 172.844h113.302l31.93-53.183h-45.09l-119.21-156.658zM448.159 845.259l-64.014-61.34h89.601l5.44-30.831H347.834c1.029-3.422 2.017-6.905 2.96-10.437s1.757-7.226 2.439-11.08l4.927-27.94h113.045l5.379-30.509H363.54l6.795-38.538h-54.917l-6.795 38.538h-55.559l17.694-31.152h-56.202l-34.805 62.625h-10.277l2.629 26.977h48.173l15.525-27.94h67.442l-4.817 27.298c-1.435 8.14-3.698 15.526-6.794 22.159H158.676l-5.44 30.831h116.257c-7.708 7.281-16.429 13.649-26.169 19.109-9.745 5.46-20.102 10.172-31.076 14.131a277.053 277.053 0 0 1-33.681 9.795c-11.481 2.569-22.812 4.607-33.992 6.102l-7.306 41.429c17.177-1.501 34.629-3.964 52.363-7.387 17.733-3.427 34.835-8.134 51.309-14.131 16.469-5.991 31.814-13.488 46.035-22.481 14.216-8.992 26.545-20.017 36.982-33.079l76.655 77.076h47.852l14.467-29.225h-14.773zM746.383 636.51h-58.771l-29.837 52.669h-12.846l1.721 21.196h56.844l10.237-17.984h34.042c-3.763 12.846-8.054 24.729-12.871 35.648-4.817 10.919-10.894 21.412-18.236 31.473a193.429 193.429 0 0 1-9.158-19.109 154.433 154.433 0 0 1-6.735-20.072h-49.779c2.961 14.773 6.93 28.372 11.913 40.786 4.983 12.42 11.044 23.876 18.19 34.363-6.975 5.57-14.682 11.03-23.118 16.379-8.44 5.354-17.838 10.709-28.206 16.058l-8.094 45.925a509.126 509.126 0 0 0 44.484-20.072c14.467-7.386 28.372-16.107 41.71-26.174 9.996 10.067 20.865 18.843 32.607 26.334a285.64 285.64 0 0 0 36.957 19.911l8.209-46.567c-15.756-8.992-29.802-19.801-42.131-32.436 11.798-13.488 22.22-28.583 31.267-45.282 9.042-16.7 16.313-35.753 21.803-57.165h12.846l5.093-28.904h-83.821l15.68-26.977zM595.938 817.64h22.481l32.055-181.772H504.993L472.938 817.64h37.254c-4.823 4.286-10.698 7.868-17.634 10.759-6.935 2.89-15.656 5.62-26.169 8.189l-6.739 38.217c20.213-1.716 37.755-5.891 52.629-12.525 14.873-6.633 27.359-15.52 37.46-26.656l12.681 39.18h48.494l7.968-21.517H607.32l-11.382-35.647z m-22.179-25.371a146.16 146.16 0 0 0 2.519-8.832c0.723-2.89 1.37-5.941 1.937-9.153l16.083-91.207h-48.173l-15.571 88.317c-2.8 15.847-6.769 28.051-11.918 36.611l26.049-147.73h59.413l-23.273 131.993h-7.066z" p-id="5231" fill="#e16531" data-spm-anchor-id="a313x.7781069.0.i5" class="selected"></path></svg>