<?xml version="1.0" standalone="no"?><!DOCTYPE svg PUBLIC "-//W3C//DTD SVG 1.1//EN" "http://www.w3.org/Graphics/SVG/1.1/DTD/svg11.dtd"><svg t="1514515383751" class="icon" style="" viewBox="0 0 1024 1024" version="1.1" xmlns="http://www.w3.org/2000/svg" p-id="5826" xmlns:xlink="http://www.w3.org/1999/xlink" width="200" height="200"><defs><style type="text/css"></style></defs><path d="M236.139 422.206h238.552l39.751-225.448-52.161-45.091H142.028L72 548.804h135.847l28.292-126.598z m28.892-197.701h121.395l-22.12 125.443H242.911l22.12-125.443z m485.077 110.991L952 160.918H814.997L652.169 300.811l26.709-151.456H557.484l-70.435 399.449h121.395l31.09-176.312 129.642 172.844h113.302l31.93-53.183h-45.09l-119.21-156.657z m-283.066 450.19l5.268-29.867h-50.421l8.716-49.457h51.706l5.384-30.509H435.99l6.905-39.181h-56.844l-6.905 39.181h-17.021l14.898-29.867h-47.53L314.519 678.1l-4.987 28.261h64.23l-8.717 49.457h-56.202l-5.268 29.867h56.202l-10.307 58.45h-61.661l-5.264 29.867H456.93l5.264-29.867h-55.88l10.307-58.45h50.421zM187.469 637.313l-36.415 206.501h-7.708l-5.319 30.188h54.275l12.058-68.405h29.225l-7.076 40.144h-12.846l2.404 28.261h54.917l41.734-236.689H187.469z m51.158 139.701h-29.225l6.739-38.217h29.225l-6.739 38.217z m11.722-66.478h-29.225l7.643-43.355h29.225l-7.643 43.355z m414.211 7.708l4.928-27.94h-58.771l4.416-25.05h41.985l20.107-27.94H504.766l-4.927 27.94h56.844l-4.416 25.05h-58.771l-4.928 27.94h58.771L519.76 874.645h58.45l27.579-156.401h58.771z m-71.125 148.372h38.859l23.841-135.205h-38.86l-23.84 135.205z m131.802-18.948h-24.086l5.52 26.977h69.69l42.131-238.937h-55.88l-37.375 211.96z m19.791-197.83h-55.88l-32.958 186.91h55.88l32.958-186.91z m-252.359 81.573l-23.841 135.205h38.859l23.84-135.205h-38.858z" p-id="5827" fill="#d81e06"></path></svg>