<?xml version="1.0" standalone="no"?><!DOCTYPE svg PUBLIC "-//W3C//DTD SVG 1.1//EN" "http://www.w3.org/Graphics/SVG/1.1/DTD/svg11.dtd"><svg t="1513059985273" class="icon" style="" viewBox="0 0 1024 1024" version="1.1" xmlns="http://www.w3.org/2000/svg" p-id="4663" xmlns:xlink="http://www.w3.org/1999/xlink" width="200" height="200"><defs><style type="text/css"></style></defs><path d="M887.001194 583.347865 886.692295 583.347865 883.673738 580.474379 883.673738 495.309801 474.870904 495.309801 474.870904 432.15206 883.673738 432.15206 883.673738 344.303852 1004.630382 459.446922 1004.630382 459.779935 887.001194 583.347865ZM670.468514 60.478322 168.062845 60.478322 360.76209 155.919238C386.375425 168.605141 407.18035 199.711668 407.18035 225.37706L410.201204 791.604967C412.409429 791.091666 414.707222 790.811476 417.072001 790.811476L671.234063 790.811476 671.234063 591.386123 731.712385 591.386123 731.712385 821.050637C731.712385 837.751075 718.173662 851.289798 701.473224 851.289798L417.072001 851.289798C414.819375 851.289798 412.62761 851.036018 410.515845 850.568651L411.390866 1014.611889C411.390866 1023.22048 404.42897 1026.503535 395.846789 1021.947756L57.030771 833.985725C36.204792 822.930058 19.37536 796.835576 19.407513 775.687302L20.522917 38.505552C19.777273 35.877042 19.369618 33.106522 19.369618 30.239161 19.369618 26.969887 19.894784 23.825014 20.854399 20.876122 22.351046 9.644761 29.313709 2.853964 39.134546 1.865259 42.398462 0.659903 45.926109 0 49.608779 0L700.707675 0C717.408113 0 730.946836 13.53834 730.946836 30.239161 730.946836 32.337529 730.732483 34.385754 730.325594 36.363548 730.732483 38.341342 730.946836 40.389567 730.946836 42.487935L730.946836 332.247997 670.468514 332.247997 670.468514 60.478322Z" p-id="4664" fill="#1296db"></path></svg>