<?xml version="1.0" standalone="no"?><!DOCTYPE svg PUBLIC "-//W3C//DTD SVG 1.1//EN" "http://www.w3.org/Graphics/SVG/1.1/DTD/svg11.dtd"><svg t="1513060017713" class="icon" style="" viewBox="0 0 1040 1024" version="1.1" xmlns="http://www.w3.org/2000/svg" p-id="5370" xmlns:xlink="http://www.w3.org/1999/xlink" width="203.125" height="200"><defs><style type="text/css"></style></defs><path d="M807.051923 882.230136c0 33.584909-28.29237 61.826114-61.942771 61.826114l-621.456924 1.011027c-33.650401 0-60.926628-27.221991-60.926628-60.801784l1.014096-620.256586c0-33.586956 28.293393-61.824067 61.942771-61.824067l309.714877 0 0-61.822021L125.681444 140.362818c-67.297732 0-123.883495 68.64031-123.883495 135.803989l0 608.097662c0 67.162656 54.555523 121.610732 121.854279 121.610732l609.272417 0c67.297732 0 136.070049-56.476269 136.070049-123.645065L868.994694 727.677131l-61.942771 0L807.051923 882.230136zM1015.352039 339.202469 717.440999 24.838711c-11.812023-11.288091-30.963199-11.288091-42.775222 0-6.801916 6.501064-9.217942 15.266705-8.18645 23.736611l0 169.287591-0.001023 0c-513.281179 9.504468-447.882704 509.811148-447.882704 509.811148s253.205862-196.372459 447.883727-222.453465l0 168.400385c-1.031493 8.472975 1.384533 17.237593 8.18645 23.734564 0.075725 0.073678 0.179079 0.092098 0.258896 0.162706 5.428639 5.418406 12.972453 8.845459 21.412682 8.845459 9.292644 0 17.262152-4.328585 22.738887-10.735505l296.275797-312.64051c6.300496-6.024204 8.982582-14.011108 8.562003-21.892613C1024.334621 353.210507 1021.653559 345.223602 1015.352039 339.202469zM726.19743 602.100064 726.19743 476.481042c0 0-0.001023-0.002047-0.001023-0.004093L726.196407 447.750697c0 0-276.91382-28.54308-454.629361 172.111916 0.932232-108.003829 138.627291-338.239538 349.245196-344.526731 15.516392-0.464581 30.689976-1.925862 45.667086 0l59.71708 0 0-28.727275c0-0.002047 0.001023-0.004093 0.001023-0.00614L726.19743 120.092146 954.584024 361.099175 726.19743 602.100064z" p-id="5371" fill="#1296db"></path></svg>