<?xml version="1.0" standalone="no"?><!DOCTYPE svg PUBLIC "-//W3C//DTD SVG 1.1//EN" "http://www.w3.org/Graphics/SVG/1.1/DTD/svg11.dtd"><svg t="1514948502217" class="icon" style="" viewBox="0 0 1160 1024" version="1.1" xmlns="http://www.w3.org/2000/svg" p-id="9322" id="mx_n_1514948502218" xmlns:xlink="http://www.w3.org/1999/xlink" width="226.5625" height="200"><defs><style type="text/css"></style></defs><path d="M935.922489 78.536797c-15.37431 50.398625-30.293759 97.090132-43.666679 118.241179l-42.597755 44.530916-155.630774 155.971919-221.904056 222.404404-43.507478 43.59845-35.615635 35.706607-86.992212-87.219643 35.592892-35.706607 43.53022-43.575707 221.881314-222.404404 155.653516-155.971919 44.348971-42.734214c14.009726-9.438371 45.417895-24.335076 117.490659-43.53022a175.576439 175.576439 0 0 1 14.555559-3.297744c-0.909722 4.798786-1.978646 9.620315-3.138542 13.986983M908.039495 8.419936c-79.236828 21.128305-128.361842 41.392373-152.287544 65.386304l-192.247103 192.656478L262.454936 568.172179a61.952101 61.952101 0 0 0 0 87.1969l87.014955 87.1969a61.633698 61.633698 0 0 0 87.014956 0l301.027169-301.663975 192.22436-192.679221c23.948444-23.971187 39.527442-68.115471 65.272588-152.583204 0 0 18.922228-68.251929 0-87.1969-18.922228-18.967714-86.992212 0-86.992212 0M326.317454 895.035467l-67.501408-67.66061-0.341146-0.409375-12.372226-12.394969-0.045486 0.022743-43.257304 43.393763-0.045486 0.045486-97.181104 97.340305-37.116677-37.184906 97.181104-97.385792v-0.045486l43.30279-43.348276 0.045486-0.045486-12.372226-12.394969c-0.113715-0.136458-0.29566-0.227431-0.409375-0.341146L125.541702 693.804854l31.703829-31.794801 200.821238 201.253356-31.726572 31.772058z m-138.164102-288.836888a43.825881 43.825881 0 0 0-61.861129 0L69.8212 662.80606a43.985082 43.985082 0 0 0 0 61.974844l52.490988 52.627446L12.736115 887.18911a44.053311 44.053311 0 0 0 0 62.020331l61.861128 61.997587c17.057297 17.057297 44.872061 17.057297 61.906615 0l109.530587-109.780761 49.352445 49.420674c16.989067 17.057297 44.826575 17.057297 61.861128 0l56.471023-56.607481a44.030568 44.030568 0 0 0 0-61.974844l-225.588432-226.066037zM801.874881 857.691359l200.798495-201.230613 31.703828 31.749315-70.685436 70.844638c-0.113715 0.136458-0.272917 0.227431-0.386633 0.318403l-12.394968 12.417712 0.045486 0.022743 43.257304 43.393762 0.045486 0.045486 97.181104 97.385792-37.13942 37.184906-97.181104-97.385791-43.30279-43.393763-0.022744-0.045486-12.394968 12.417712-0.318403 0.386632-67.501408 67.683353-31.703829-31.794801z m-55.720502-30.976051a43.985082 43.985082 0 0 0 0 61.974844l56.493766 56.630225c17.01181 17.01181 44.803832 17.01181 61.861129 0l49.306959-49.46616 109.576072 109.803503c16.989067 17.034553 44.849318 17.034553 61.861129 0l61.883872-62.043073a44.053311 44.053311 0 0 0 0-61.997587l-109.55333-109.803503 52.490987-52.58196a44.053311 44.053311 0 0 0 0-61.997587l-56.493766-56.630224a43.803137 43.803137 0 0 0-61.838385 0l-225.56569 226.111522z" p-id="9323" fill="#1afa29"></path><path d="M808.447626 145.833517l-139.18754 133.683719a11.621705 11.621705 0 1 0 16.102088 16.761637l139.18754-133.683719a11.621705 11.621705 0 1 0-16.102088-16.761637zM643.947058 302.94259l-6.731946 6.731946a11.621705 11.621705 0 0 0 16.465977 16.420491l6.731946-6.731946a11.621705 11.621705 0 0 0-16.465977-16.443234z" p-id="9324" fill="#1afa29"></path><path d="M747.177817 515.021643l17.421186 17.466672 43.484734 43.575707 35.638378 35.706607-87.014955 87.219643-35.615635-35.706607-43.507478-43.59845-17.421185-17.466672-43.507478 43.59845 96.544298 96.748986a61.633698 61.633698 0 0 0 87.037699 0l86.992212-87.1969a61.883872 61.883872 0 0 0 0-87.174157l-96.567041-96.771729-43.484735 43.59845zM154.675565 95.639579c25.745146 84.467732 41.324144 128.612016 65.272588 152.605947l135.275733 135.571392 43.507478-43.59845-98.70489-98.932319-42.552269-44.508173c-13.395664-21.173791-28.292369-67.842554-43.666679-118.263922a194.862556 194.862556 0 0 1-3.138542-13.96424c5.253647 0.977952 10.370836 2.115105 14.555559 3.297744 72.095507 19.217887 103.480932 34.114593 117.445173 43.53022l44.394457 42.756957 98.682146 98.886834 43.507478-43.621193-135.32122-135.571393C370.029619 49.857795 320.904605 29.548241 241.713263 8.419936c0 0-68.092728-18.944971-87.014955 0-18.922228 18.967714 0 87.219643 0 87.219643" p-id="9325" fill="#1afa29"></path></svg>